<svg width="388" height="196" viewBox="0 0 388 196" fill="none" xmlns="http://www.w3.org/2000/svg">
<path d="M142.19 182.846L127.178 149.511H135.29L147.645 177.018H148.251L160.606 149.511H168.719L153.706 182.846H142.19ZM171.965 182.846V149.511H178.212L193.644 160.327H193.877L209.31 149.511H215.557V182.846H208.097V158.835L197.514 165.922V182.846H190.054V165.922L179.424 158.835V182.846H171.965ZM221.021 183.079V177.018L247.829 177.065C249.197 177.065 250.238 176.754 250.953 176.132C251.699 175.48 252.072 174.438 252.072 173.009C252.072 171.579 251.699 170.553 250.953 169.931C250.238 169.279 249.197 168.952 247.829 168.952H231.138C227.688 168.952 224.999 168.129 223.072 166.481C221.176 164.803 220.228 162.347 220.228 159.115C220.228 155.882 221.176 153.443 223.072 151.795C224.999 150.117 227.688 149.278 231.138 149.278H257.34V155.339L231.931 155.292C230.594 155.292 229.553 155.603 228.807 156.224C228.061 156.815 227.688 157.778 227.688 159.115C227.688 160.451 228.061 161.431 228.807 162.052C229.553 162.643 230.594 162.938 231.931 162.938H248.622C252.072 162.938 254.745 163.793 256.641 165.502C258.568 167.181 259.531 169.683 259.531 173.009C259.531 176.303 258.568 178.805 256.641 180.515C254.745 182.224 252.072 183.079 248.622 183.079H221.021Z" fill="#081129"/>
<path d="M101.829 53.2485C109.831 53.2485 117.431 53.2485 124.733 53.2485C114.19 63.7523 103.527 74.3767 92.5842 85.2788C100.369 93.0774 107.281 100.099 114.356 106.952C115.141 107.712 116.86 107.712 118.147 107.719C128.741 107.776 139.338 107.637 149.928 107.857C151.823 107.896 154.113 108.866 155.497 110.174C161.997 116.315 168.245 122.724 175.098 129.55C173.324 129.669 172.208 129.808 171.092 129.808C149.903 129.821 128.713 129.884 107.526 129.711C105.525 129.695 103.039 128.684 101.62 127.282C87.8995 113.732 74.3595 100 60.4954 86.0462C61.5894 84.8993 62.8175 83.5606 64.0999 82.276C71.8727 74.4899 79.9294 66.9635 87.3304 58.8394C91.3518 54.4252 95.6117 52.312 101.829 53.2485Z" fill="#081129"/>
<path d="M255.928 19.8163C280.049 19.8163 303.762 19.8163 328.266 19.8163C327.154 21.1967 326.596 22.0315 325.901 22.7307C319.965 28.7036 314.064 34.7154 307.994 40.5499C306.876 41.6242 305.042 42.5314 303.535 42.5365C270.658 42.6486 237.78 42.627 204.903 42.5984C203.873 42.5975 202.484 42.6131 201.87 42.0062C194.743 34.9574 187.733 27.7901 179.866 19.8163C205.941 19.8163 230.731 19.8163 255.928 19.8163Z" fill="#081129"/>
<path d="M202.176 78.5323C202.176 86.5012 202.176 94.0623 202.176 102.847C192.961 93.538 184.459 85.0587 176.147 76.397C175.226 75.4377 174.903 73.3592 175.131 71.9318C176.615 62.6276 172.925 56.0747 166.108 49.7182C160.652 44.6307 155.601 42.1361 148.084 42.448C133.629 43.0477 119.132 42.6227 103.784 42.6227C111.545 34.8848 118.679 27.7169 125.914 20.6518C126.552 20.0287 127.846 19.853 128.837 19.849C141.473 19.7972 154.11 19.7789 166.746 19.875C167.902 19.8838 169.342 20.4414 170.158 21.2443C180.132 31.0599 190.079 40.9061 199.844 50.9288C201.154 52.2734 202.004 54.6102 202.073 56.5232C202.33 63.7156 202.176 70.9228 202.176 78.5323Z" fill="#081129"/>
<path d="M239.943 129.564C239.663 104.048 239.663 78.8072 239.663 53.4077C249.124 53.4077 258.306 53.4077 267.707 53.4077C267.707 78.7443 267.707 103.966 267.707 129.839C258.561 129.839 249.392 129.839 239.943 129.564Z" fill="#081129"/>
<path d="M170.88 85.8753C173.685 85.5691 175.479 86.3479 177.295 88.1904C190.818 101.916 204.485 115.5 218.796 129.817C213.698 129.817 209.338 129.848 204.979 129.809C198.622 129.752 191.583 131.318 186.105 129.081C180.764 126.899 176.993 120.833 172.579 116.426C162.603 106.463 152.656 96.4712 142.083 85.8753C151.982 85.8753 161.243 85.8753 170.88 85.8753Z" fill="#081129"/>
<path d="M348.416 132.674C346.604 140.054 343.618 146.49 339.526 152.435C341.566 134.328 343.579 116.452 345.568 98.7882C351.383 109.2 351.454 120.614 348.416 132.674Z" fill="#081129"/>
<path d="M37.9733 120.924C37.6639 112.784 38.6395 105.327 42.6715 98.0793C44.5823 116.324 46.4425 134.085 48.4031 152.805C42.7262 142.409 38.0939 132.637 37.9733 120.924Z" fill="#081129"/>
<path d="M26.9753 107.425C30.1492 101.236 33.718 97.749 40.6632 94.5476C32.6371 103.357 29.2942 112.749 30.2242 123.601C31.1571 134.486 36.8301 143.174 43.2186 151.568C29.8157 145.346 20.7228 124.1 26.9753 107.425Z" fill="#081129"/>
<path d="M361.923 128.926C358.988 138.652 354.37 146.766 344.959 151.659C359.313 133.722 364.23 115.214 348.329 94.9823C360.225 100.697 365.737 111.07 361.923 128.926Z" fill="#081129"/>
<path d="M24.9318 54.2702C23.6018 45.7496 26.889 38.849 31.4275 32.557C34.261 28.6288 37.9235 25.2985 41.9001 22.2339C36.7453 30.6028 31.9135 38.7515 30.6265 48.7161C29.3271 58.777 32.6678 67.3026 37.5811 75.6766C30.4187 70.3733 26.4588 63.2445 24.9318 54.2702Z" fill="#081129"/>
<path d="M350.109 75.923C363.102 56.9761 358.475 39.5492 345.945 22.3834C346.693 22.7501 347.52 23.0104 348.176 23.4996C356.616 29.7879 361.63 38.3557 363.36 48.5345C364.543 55.4959 362.137 62.0905 358.041 67.7823C355.859 70.8135 352.959 73.3269 350.109 75.923Z" fill="#081129"/>
<path d="M16.1091 33.6172C16.108 31.3417 16.108 29.4435 16.108 27.4923C26.7435 39.0389 16.4631 74.5981 1.37329 81.305C11.2839 66.6803 15.3268 50.8241 16.1091 33.6172Z" fill="#081129"/>
<path d="M372.827 42.2309C374.426 56.4327 378.761 69.4486 386.359 81.346C370.801 72.0701 362.482 42.4462 371.255 27.856C371.817 32.4522 372.396 37.1924 372.827 42.2309Z" fill="#081129"/>
<path d="M375.873 122.75C373.626 132.866 371.51 142.668 369.493 152.013C362.137 140.895 371.365 108.769 385.401 98.2317C382.293 106.238 379.148 114.337 375.873 122.75Z" fill="#081129"/>
<path d="M5.86711 106.022C4.63345 103.552 3.5824 101.33 2.24927 98.5128C16.2068 105.844 26.2781 144.533 17.8269 153.188C16.908 136.572 12.8615 121.06 5.86711 106.022Z" fill="#081129"/>
<path d="M39.7143 45.0018C41.5711 37.3721 43.415 30.1077 45.259 22.8434C46.0044 22.9627 46.7499 23.0821 47.4953 23.2014C45.9931 40.3484 44.4908 57.4953 42.8961 75.6972C39.2635 65.1612 38.0956 55.4149 39.7143 45.0018Z" fill="#081129"/>
<path d="M341.884 23.649C350.037 40.4455 351.639 57.3909 345.234 75.6256C344.229 64.1712 343.371 53.509 342.329 42.865C341.755 37.0094 340.815 31.1902 340.181 25.3393C340.081 24.4167 340.732 23.4127 341.036 22.4463C341.255 22.7684 341.474 23.0905 341.884 23.649Z" fill="#081129"/>
<path d="M352.235 153.634C355.281 150.376 358.12 147.324 361.194 144.018C362.409 149.346 363.03 154.647 364.918 159.448C366.209 162.731 365.256 163.958 362.583 165.561C361.235 161.321 359.954 157.292 358.569 152.938C351.813 158.135 345.43 163.045 339.048 167.955C338.666 167.63 338.285 167.304 337.903 166.978C338.638 165.83 339.155 164.429 340.145 163.577C344.026 160.238 348.055 157.071 352.235 153.634Z" fill="#081129"/>
<path d="M29.1928 154.152C27.9213 158.355 26.7236 162.218 25.5911 165.871C22.6003 164.285 22.3605 161.924 23.426 158.615C24.9654 153.835 25.8103 148.832 26.6847 145.071C33.6748 151.159 41.0616 157.546 48.3692 164.022C49.1758 164.737 49.5296 165.963 50.0934 166.952C49.8184 167.204 49.5434 167.457 49.2684 167.709C46.6153 165.913 43.8532 164.255 41.3353 162.286C37.8105 159.529 34.4892 156.513 31.0119 153.693C30.6804 153.424 29.86 153.758 29.1928 154.152Z" fill="#081129"/>
<path d="M355.101 167.533C355.271 168.767 355.375 169.819 355.149 170.793C354.804 172.275 354.665 174.419 353.673 175.022C350.582 176.902 347.144 178.218 343.815 179.696C341.894 180.549 340.511 180.242 339.794 177.941C339.177 175.96 338.215 174.239 340.644 172.654C345.017 169.8 349.245 166.726 353.862 163.514C354.216 164.826 354.551 166.071 355.101 167.533Z" fill="#081129"/>
<path d="M36.5732 165.095C40.6854 167.977 44.7065 170.495 48.2743 173.543C49.0421 174.2 48.5465 176.931 47.9142 178.397C47.5547 179.231 45.4633 180.134 44.6268 179.804C40.9291 178.343 37.1698 176.779 33.9473 174.519C32.8676 173.762 33.0732 170.818 33.1363 168.888C33.1958 167.071 33.8414 165.274 34.2909 163.18C35.1231 163.894 35.7214 164.407 36.5732 165.095Z" fill="#081129"/>
<path d="M357.043 13.7604C356.689 14.7688 356.373 15.4774 356.049 16.2012C351.234 12.1947 346.541 8.29023 341.697 4.25916C342.295 0.186525 343.386 -0.661961 347.35 0.443942C349.026 0.911408 350.716 1.49464 352.235 2.32497C358.579 5.79106 358.9 6.6276 357.043 13.7604Z" fill="#081129"/>
<path d="M23.4777 22.4124C20.7705 15.7239 20.7705 15.7239 25.4581 12.5747C26.3944 16.5938 27.3154 20.5471 28.1389 24.0821C34.3127 18.4656 40.4771 12.8578 47.0154 6.90979C48.1041 9.48133 48.8189 10.4658 46.1125 12.1203C42.0746 14.5889 38.8079 18.3293 35.2503 21.5694C32.3955 24.1694 29.596 26.8301 26.3531 29.8545C25.3906 27.426 24.459 25.0756 23.4777 22.4124Z" fill="#081129"/>
<path d="M33.2889 15.7291C32.7483 15.8798 32.3523 16.1749 32.2988 16.1222C29.7365 13.5992 29.4086 6.92995 32.1891 5.02792C35.113 3.02779 38.4768 1.55632 41.8203 0.317823C44.8857 -0.817657 46.1789 1.31074 46.6638 3.62146C42.2115 7.73971 37.9024 11.7255 33.2889 15.7291Z" fill="#081129"/>
<path d="M361.591 17.5659C362.018 15.6343 362.333 14.0267 362.642 12.4501C367.413 14.6163 367.321 17.6184 365.17 21.4238C363.726 23.9784 362.859 26.8595 361.816 29.3951C354.534 22.7767 347.224 16.133 339.803 9.38951C340.643 7.91664 341.388 7.64744 343.287 9.29469C348.893 14.1581 354.382 19.1576 360.023 24.1995C360.439 22.3976 360.959 20.1438 361.591 17.5659Z" fill="#081129"/>
<path d="M2.13348 116.224C1.41948 111.622 0.709741 107.369 0 103.115C0.401979 103.018 0.803958 102.922 1.20594 102.825C5.7961 117.99 10.3863 133.155 14.9764 148.321C8.43729 138.576 4.68257 127.806 2.13348 116.224Z" fill="#081129"/>
<path d="M384.61 122.327C381.838 131.124 379.187 139.609 374.577 147.248C374.244 147.122 373.911 146.996 373.578 146.871C377.945 132.452 382.311 118.033 386.678 103.614C387.119 103.691 387.559 103.769 388 103.847C386.908 109.902 385.816 115.958 384.61 122.327Z" fill="#081129"/>
<path d="M378.999 39.5123C383.668 50.8243 386.608 62.2024 387.488 74.0376C387.154 74.1168 386.819 74.1959 386.485 74.2751C382.75 61.0914 379.015 47.9077 375.281 34.724C375.646 34.5701 376.012 34.4162 376.377 34.2623C377.219 35.9135 378.061 37.5648 378.999 39.5123Z" fill="#081129"/>
<path d="M3.90112 66.3053C3.22411 68.4791 2.59363 70.3241 1.96316 72.169C1.5158 72.0718 1.06845 71.9745 0.621094 71.8773C1.40519 67.7534 2.09961 63.6099 2.99792 59.511C3.94798 55.176 4.8434 50.8021 6.22228 46.5958C7.57097 42.4816 9.49906 38.5574 11.1556 34.5911C12.1466 35.9848 12.1644 35.9893 9.9723 44.7324C9.07686 48.3039 8.13101 51.8643 7.12506 55.4061C6.11996 58.9449 5.01106 62.4543 3.90112 66.3053Z" fill="#081129"/>
<path d="M370.595 86.825C370.01 90.4932 367.914 91.0913 365.012 90.1784C361.35 89.0266 357.695 87.8558 352.951 86.3484C358.231 85.0492 362.539 83.7083 366.949 83.1098C367.994 82.9679 369.378 85.3158 370.595 86.825Z" fill="#081129"/>
<path d="M22.2678 90.0703C20.3579 89.6574 18.7547 89.1851 17.1753 88.7199C18.6611 82.8965 18.9994 82.6839 24.3445 83.8506C27.5467 84.5495 30.7442 85.2699 33.9936 86.6658C30.1872 87.7808 26.3808 88.8958 22.2678 90.0703Z" fill="#081129"/>
<path d="M372.264 79.5269C371.117 80.3238 369.758 80.8545 368.242 81.4469C368.242 76.0578 368.242 71.2934 368.242 66.5291C368.495 66.5027 368.747 66.4763 369 66.45C370.017 70.7202 371.034 74.9905 372.264 79.5269Z" fill="#081129"/>
<path d="M7.44493 89.8713C6.38689 89.5279 5.64109 89.2404 4.57739 88.8304C7.77089 87.2312 10.6893 85.7698 14.0451 84.0894C13.929 86.6966 13.8327 88.8597 13.7167 91.4628C11.5754 90.911 9.66625 90.4191 7.44493 89.8713Z" fill="#081129"/>
<path d="M17.7562 72.7192C18.1637 70.7192 18.5495 69.0606 18.9353 67.402C19.0747 67.4282 19.214 67.4544 19.3534 67.4806C19.6806 71.871 20.0078 76.2614 20.3495 80.8449C18.8137 80.8449 17.6652 80.8449 16.0522 80.8449C16.6295 78.1736 17.182 75.617 17.7562 72.7192Z" fill="#081129"/>
<path d="M374.359 84.7477C377.387 85.8596 380.246 87.2213 383.888 88.9557C380.271 89.9081 377.439 90.6539 374.191 91.5091C374.191 89.2424 374.191 87.12 374.359 84.7477Z" fill="#081129"/>
<path d="M18.8736 101.934C18.721 103.475 18.5737 104.671 18.4469 105.702C17.8385 101.705 17.2008 97.5151 16.563 93.3251C17.281 93.2526 17.9991 93.1801 18.7171 93.1075C18.771 95.9348 18.825 98.762 18.8736 101.934Z" fill="#081129"/>
<path d="M369.171 95.6279C369.355 94.5651 369.537 93.8726 369.718 93.1802C370.192 93.2248 370.666 93.2694 371.14 93.3141C370.811 97.3085 370.482 101.303 370.153 105.297C369.824 105.3 369.496 105.302 369.167 105.305C369.167 102.203 369.167 99.1005 369.171 95.6279Z" fill="#081129"/>
</svg>
