<svg width="155" height="60" viewBox="0 0 155 60" fill="none" xmlns="http://www.w3.org/2000/svg">
<path d="M150.756 5.34829L150.661 10.0712L145.012 10.1669C141.725 10.1988 139.332 10.135 139.332 9.94354C139.332 9.68825 140.959 8.25224 147.437 2.82729C148.873 1.64657 150.214 0.657315 150.437 0.657315C150.756 0.657315 150.82 1.71039 150.756 5.34829ZM33.6732 13.7091C33.9923 13.9006 33.7051 14.4111 32.4286 15.8472C28.9503 19.7404 26.9399 21.7189 26.6527 21.5274C26.2059 21.2721 26.3016 14.2516 26.7484 13.8048C27.1952 13.3581 32.9711 13.2623 33.6732 13.7091ZM48.0014 13.6772C48.4482 13.9644 48.0333 14.6026 42.3212 21.9103C41.0128 23.6016 39.5768 25.4525 39.13 26.0269C38.6833 26.6013 37.0558 28.7394 35.4921 30.7817L32.652 34.5154L33.5774 35.8556C34.1199 36.5896 35.524 38.6319 36.7367 40.3871C37.9174 42.1422 39.13 43.8335 39.3853 44.1526C39.6406 44.4398 40.0236 44.9823 40.215 45.3014C40.4065 45.6525 42.6722 48.9074 45.2251 52.5772C47.8099 56.2151 49.8523 59.3106 49.7565 59.4382C49.6927 59.5978 47.6504 59.6935 45.2251 59.6935H40.8533L38.1727 55.6407C36.6729 53.4388 35.2368 51.237 34.9815 50.7902C34.6943 50.3434 32.2691 46.6736 29.5885 42.6209C26.876 38.6 24.6103 35.0259 24.5146 34.7387C24.4508 34.4196 24.7699 33.7176 25.2805 33.1113C25.7911 32.5049 27.6419 30.0478 29.397 27.6544C31.1522 25.2291 33.3222 22.3252 34.1838 21.1445C35.0773 19.9637 36.4814 18.081 37.2792 16.9322C39.9278 13.2304 39.5768 13.4219 43.8529 13.4219C45.8953 13.4219 47.778 13.5495 48.0014 13.6772ZM123.281 13.9006C123.44 14.3473 121.238 20.1233 119.036 25.0696C118.653 25.9312 116.675 30.7498 114.601 35.7599C112.558 40.77 110.516 45.6205 110.101 46.546C109.686 47.4714 109.335 48.333 109.335 48.4926C109.335 48.6521 109.112 49.1946 108.857 49.6733C107.963 51.3965 107.835 51.3646 115.494 51.4603L122.578 51.5561L122.674 55.6088L122.77 59.6935H109.973C101.932 59.6935 97.2089 59.5658 97.2089 59.3744C97.2089 59.0553 109.91 27.2396 110.931 25.0377C111.282 24.3037 111.633 23.3464 111.76 22.8677L111.952 22.038L104.836 21.9742L97.6875 21.8784L97.5918 18.081C97.5599 15.9748 97.5918 14.0601 97.6556 13.8367C97.7833 13.5176 100.336 13.4219 110.452 13.4219C121.525 13.4219 123.089 13.4857 123.281 13.9006ZM154.49 17.7299V21.8784L146.033 22.038L137.577 22.1975L137.481 26.6651C137.449 29.1223 137.449 31.42 137.545 31.771C137.704 32.3773 137.96 32.4092 145.459 32.4092H153.213V36.5577V40.7062L145.395 40.8657L137.577 41.0253L137.481 46.195L137.417 51.3965L145.938 51.4603L154.49 51.5561L154.586 55.4174C154.649 58.2575 154.554 59.3425 154.267 59.5658C154.011 59.7573 149.033 59.8211 141.981 59.7573L130.078 59.6297V36.7173C130.078 18.6873 130.173 13.7729 130.492 13.6453C130.684 13.5495 136.205 13.4857 142.683 13.5176L154.49 13.5814V17.7299ZM7.66535 13.9325C8.11211 14.1239 8.17593 16.4216 8.17593 36.9087V59.6935H4.50612H0.836304V36.9087C0.836304 18.9745 0.932038 14.092 1.25115 13.9644C1.82556 13.7091 7.05903 13.7091 7.66535 13.9325ZM21.5149 13.9963C21.834 14.2197 21.8979 19.0064 21.834 36.9087L21.7383 59.5339H18.228H14.7178L14.622 36.9087C14.5582 19.0064 14.622 14.2197 14.9412 13.9963C15.1645 13.8687 16.6644 13.741 18.228 13.741C19.8236 13.741 21.2915 13.8687 21.5149 13.9963ZM75.2857 18.6873C78.7321 26.7609 82.2424 34.9621 82.6572 35.9195C82.9125 36.43 84.189 39.3978 85.4974 42.4613C86.8376 45.5248 88.9438 50.4073 90.1883 53.3112C91.4329 56.2151 92.486 58.8 92.5179 59.0553C92.5817 59.4701 91.9435 59.5339 88.4651 59.5339C85.1463 59.5339 84.3166 59.4382 84.0933 59.0553C83.9656 58.8 83.0721 56.5023 82.1147 53.9494C81.1574 51.3965 79.0512 45.9397 77.4876 41.8231C75.9239 37.7065 74.3284 33.5261 73.9773 32.5688C73.6263 31.6114 73.2434 30.8136 73.0838 30.8136C72.8285 30.8136 71.8073 33.2708 69.3821 39.7488C68.68 41.6635 67.9142 43.6739 67.6908 44.2164C67.4674 44.727 66.6058 46.9608 65.7761 49.1627C64.9464 51.3646 63.7338 54.5877 63.0636 56.3428L61.8191 59.5339L57.6706 59.6297C54.8943 59.6935 53.4902 59.5978 53.4902 59.3744C53.4902 59.1191 60.6064 42.3018 62.7445 37.515C63.0636 36.813 63.7018 35.3131 64.1805 34.1643C64.6592 33.0155 65.3612 31.3561 65.7442 30.4945C66.159 29.601 67.8184 25.7397 69.4459 21.8784C72.5732 14.5388 72.9243 13.8687 73.2753 14.2835C73.4029 14.4111 74.2964 16.3897 75.2857 18.6873ZM73.6263 49.067C74.6156 51.6199 77.1047 58.9276 77.1047 59.2786C77.1047 59.5978 76.1792 59.6935 72.9562 59.6935C70.6904 59.6935 68.8077 59.5978 68.8077 59.4382C68.8077 59.3106 69.2544 58.0022 69.7969 56.5023C70.3394 55.0025 70.8819 53.5027 70.9457 53.1516C71.0415 52.8006 71.2329 52.3539 71.3606 52.1943C71.4563 52.0028 71.7754 51.237 71.9988 50.4392C72.4137 49.0989 72.8604 48.2054 73.1476 48.2054C73.2434 48.2054 73.4348 48.5883 73.6263 49.067ZM30.5139 54.9068C32.2691 57.2682 33.7051 59.3425 33.7051 59.4701C33.7051 59.5978 32.0776 59.6616 30.131 59.6297L26.525 59.5339L26.4293 55.2578C26.3335 50.8221 26.4612 49.769 27.0037 50.3115C27.1952 50.503 28.7588 52.5453 30.5139 54.9068Z" fill="url(#paint0_linear_2555_11003)"/>
<defs>
<linearGradient id="paint0_linear_2555_11003" x1="77.7803" y1="82.3061" x2="77.7803" y2="-28.4505" gradientUnits="userSpaceOnUse">
<stop stop-color="#001526"/>
<stop offset="1" stop-color="#002B99"/>
</linearGradient>
</defs>
</svg>
