<svg width="121" height="47" viewBox="0 0 121 47" fill="none" xmlns="http://www.w3.org/2000/svg">
<path d="M117.972 3.69023L117.896 7.40667L113.452 7.482C110.865 7.50711 108.982 7.45689 108.982 7.30622C108.982 7.10533 110.263 5.97534 115.36 1.70646C116.49 0.777346 117.545 -0.00109863 117.721 -0.00109863C117.972 -0.00109863 118.022 0.827565 117.972 3.69023ZM25.8393 10.2693C26.0904 10.42 25.8644 10.8218 24.86 11.9518C22.1229 15.0153 20.5409 16.5722 20.3149 16.4215C19.9633 16.2207 20.0386 10.6962 20.3902 10.3447C20.7417 9.99311 25.2868 9.91777 25.8393 10.2693ZM37.1142 10.2442C37.4657 10.4702 37.1393 10.9724 32.6444 16.7229C31.6148 18.0538 30.4848 19.5102 30.1333 19.9622C29.7817 20.4142 28.5011 22.0966 27.2706 23.7038L25.0357 26.6417L25.764 27.6964C26.1908 28.274 27.2957 29.8811 28.25 31.2622C29.1791 32.6433 30.1333 33.9742 30.3342 34.2253C30.5351 34.4513 30.8364 34.8782 30.9871 35.1293C31.1377 35.4055 32.9206 37.9668 34.9295 40.8546C36.9635 43.7173 38.5706 46.153 38.4953 46.2535C38.445 46.379 36.8379 46.4544 34.9295 46.4544H31.4893L29.38 43.2653C28.1997 41.5326 27.0697 39.7999 26.8688 39.4484C26.6428 39.0968 24.7344 36.2091 22.6251 33.02C20.4906 29.856 18.7077 27.0435 18.6324 26.8175C18.5822 26.5664 18.8333 26.014 19.2351 25.5369C19.6369 25.0597 21.0933 23.1262 22.4744 21.2429C23.8555 19.3344 25.5631 17.0493 26.2411 16.1202C26.9442 15.1911 28.0491 13.7095 28.6768 12.8055C30.7611 9.89267 30.4848 10.0433 33.8497 10.0433C35.4568 10.0433 36.9384 10.1438 37.1142 10.2442ZM96.3512 10.42C96.4767 10.7715 94.7441 15.3167 93.0114 19.2089C92.7101 19.8869 91.1532 23.6786 89.521 27.6211C87.9139 31.5635 86.3067 35.3804 85.9803 36.1086C85.6539 36.8368 85.3776 37.5148 85.3776 37.6404C85.3776 37.766 85.2018 38.1928 85.001 38.5695C84.2979 39.9255 84.1974 39.9004 90.2241 39.9757L95.7987 40.0511L95.8741 43.2402L95.9494 46.4544H85.8799C79.5519 46.4544 75.8354 46.3539 75.8354 46.2033C75.8354 45.9522 85.8296 20.9164 86.6332 19.1838C86.9094 18.6062 87.1856 17.8529 87.2861 17.4762L87.4367 16.8233L81.837 16.7731L76.2121 16.6978L76.1368 13.7095C76.1117 12.0522 76.1368 10.5456 76.187 10.3698C76.2874 10.1187 78.2963 10.0433 86.2565 10.0433C94.9701 10.0433 96.2005 10.0936 96.3512 10.42ZM120.91 13.4333V16.6978L114.255 16.8233L107.601 16.9489L107.526 20.4644C107.5 22.398 107.5 24.206 107.576 24.4822C107.701 24.9593 107.902 24.9844 113.803 24.9844H119.905V28.2489V31.5133L113.753 31.6389L107.601 31.7644L107.526 35.8324L107.475 39.9255L114.18 39.9757L120.91 40.0511L120.985 43.0895C121.035 45.3244 120.96 46.1782 120.734 46.3539C120.533 46.5046 116.616 46.5548 111.066 46.5046L101.7 46.4042V28.3744C101.7 14.1867 101.775 10.3196 102.026 10.2191C102.177 10.1438 106.521 10.0935 111.619 10.1187L120.91 10.1689V13.4333ZM5.37377 10.4451C5.72532 10.5958 5.77555 12.4038 5.77555 28.5251V46.4544H2.88777H0V28.5251C0 14.4127 0.0753329 10.5707 0.326444 10.4702C0.778443 10.2693 4.89666 10.2693 5.37377 10.4451ZM16.272 10.4953C16.5231 10.6711 16.5733 14.4378 16.5231 28.5251L16.4478 46.3288H13.6855H10.9233L10.848 28.5251C10.7978 14.4378 10.848 10.6711 11.0991 10.4953C11.2749 10.3949 12.4551 10.2944 13.6855 10.2944C14.9411 10.2944 16.0962 10.3949 16.272 10.4953ZM58.5841 14.1867C61.2961 20.5398 64.0583 26.9933 64.3848 27.7466C64.5857 28.1484 65.5901 30.4837 66.6197 32.8944C67.6743 35.3051 69.3317 39.1471 70.311 41.4322C71.2903 43.7173 72.119 45.7513 72.1441 45.9522C72.1943 46.2786 71.6921 46.3288 68.955 46.3288C66.3434 46.3288 65.6906 46.2535 65.5148 45.9522C65.4143 45.7513 64.7112 43.9433 63.9579 41.9344C63.2046 39.9255 61.5472 35.6315 60.3168 32.3922C59.0863 29.1529 57.8308 25.8633 57.5546 25.11C57.2783 24.3566 56.977 23.7289 56.8515 23.7289C56.6506 23.7289 55.847 25.6624 53.9386 30.76C53.3861 32.2666 52.7835 33.8486 52.6077 34.2755C52.4319 34.6773 51.7539 36.4351 51.101 38.1677C50.4481 39.9004 49.4939 42.4366 48.9666 43.8177L47.9873 46.3288L44.7228 46.4042C42.5381 46.4544 41.4333 46.379 41.4333 46.2033C41.4333 46.0024 47.033 32.7689 48.7155 29.0022C48.9666 28.4497 49.4688 27.2695 49.8455 26.3655C50.2221 25.4615 50.7746 24.1558 51.0759 23.4778C51.4024 22.7746 52.7081 19.7362 53.9888 16.6978C56.4497 10.9222 56.7259 10.3949 57.0021 10.7213C57.1026 10.8218 57.8057 12.3787 58.5841 14.1867ZM57.2784 38.0924C58.0568 40.1013 60.0155 45.8517 60.0155 46.1279C60.0155 46.379 59.2872 46.4544 56.751 46.4544C54.9681 46.4544 53.4866 46.379 53.4866 46.2535C53.4866 46.153 53.8381 45.1235 54.265 43.9433C54.6919 42.7631 55.1188 41.5828 55.169 41.3066C55.2444 41.0304 55.395 40.6788 55.4955 40.5533C55.5708 40.4026 55.8219 39.7999 55.9977 39.1722C56.3241 38.1175 56.6757 37.4144 56.9017 37.4144C56.977 37.4144 57.1277 37.7157 57.2784 38.0924ZM23.3533 42.6877C24.7344 44.5459 25.8644 46.1782 25.8644 46.2786C25.8644 46.379 24.5837 46.4293 23.052 46.4042L20.2144 46.3288L20.1391 42.9639C20.0637 39.4735 20.1642 38.6448 20.5911 39.0717C20.7417 39.2224 21.9722 40.8295 23.3533 42.6877Z" fill="#001526"/>
</svg>
