<svg width="121" height="47" viewBox="0 0 121 47" fill="none" xmlns="http://www.w3.org/2000/svg">
<path d="M117.262 4.2576L117.188 7.92142L112.806 7.99569C110.257 8.02044 108.4 7.97093 108.4 7.8224C108.4 7.62435 109.663 6.51036 114.688 2.30192C115.802 1.38596 116.842 0.618538 117.015 0.618538C117.262 0.618538 117.312 1.43547 117.262 4.2576ZM26.4344 10.7436C26.6819 10.8921 26.4591 11.2882 25.4689 12.4022C22.7706 15.4224 21.211 16.9572 20.9882 16.8087C20.6416 16.6106 20.7159 11.1644 21.0624 10.8178C21.409 10.4712 25.8898 10.397 26.4344 10.7436ZM37.5496 10.7188C37.8962 10.9416 37.5744 11.4367 33.1431 17.1057C32.1282 18.4178 31.0142 19.8536 30.6676 20.2992C30.321 20.7448 29.0585 22.4034 27.8455 23.9878L25.6422 26.8842L26.3601 27.9239C26.781 28.4933 27.8702 30.0776 28.8109 31.4392C29.7269 32.8007 30.6676 34.1128 30.8656 34.3603C31.0637 34.5831 31.3607 35.004 31.5093 35.2515C31.6578 35.5239 33.4155 38.0489 35.3959 40.8958C37.4011 43.7179 38.9855 46.1192 38.9112 46.2183C38.8617 46.342 37.2773 46.4163 35.3959 46.4163H32.0044L29.9249 43.2723C28.7614 41.5642 27.6474 39.8561 27.4494 39.5095C27.2266 39.1629 25.3451 36.316 23.2657 33.1721C21.1615 30.0529 19.4038 27.2803 19.3296 27.0575C19.28 26.8099 19.5276 26.2653 19.9237 25.7949C20.3198 25.3246 21.7556 23.4184 23.1172 21.5617C24.4787 19.6803 26.1621 17.4276 26.8305 16.5116C27.5236 15.5956 28.6129 14.1351 29.2318 13.2439C31.2865 10.3722 31.0142 10.5208 34.3314 10.5208C35.9158 10.5208 37.3763 10.6198 37.5496 10.7188ZM95.948 10.8921C96.0717 11.2387 94.3636 15.7194 92.6555 19.5565C92.3584 20.2249 90.8236 23.963 89.2145 27.8496C87.6301 31.7363 86.0457 35.4991 85.7239 36.217C85.4021 36.9349 85.1298 37.6033 85.1298 37.7271C85.1298 37.8509 84.9565 38.2717 84.7584 38.6431C84.0653 39.9799 83.9663 39.9551 89.9076 40.0294L95.4033 40.1036L95.4776 43.2476L95.5519 46.4163H85.6249C79.3865 46.4163 75.7227 46.3173 75.7227 46.1687C75.7227 45.9212 85.5754 21.2399 86.3676 19.5318C86.6399 18.9624 86.9122 18.2197 87.0112 17.8484L87.1597 17.2048L81.6393 17.1552L76.094 17.081L76.0198 14.1351C75.995 12.5012 76.0197 11.0159 76.0693 10.8426C76.1683 10.595 78.1487 10.5208 85.9962 10.5208C94.5864 10.5208 95.7994 10.5703 95.948 10.8921ZM120.159 13.8628V17.081L113.599 17.2048L107.038 17.3285L106.964 20.7943C106.939 22.7005 106.939 24.4829 107.014 24.7552C107.137 25.2256 107.336 25.2503 113.153 25.2503H119.169V28.4685V31.6867L113.104 31.8105L107.038 31.9343L106.964 35.9447L106.915 39.9799L113.524 40.0294L120.159 40.1036L120.233 43.0991C120.283 45.3023 120.208 46.144 119.986 46.3173C119.788 46.4658 115.926 46.5153 110.455 46.4658L101.221 46.3668V28.5923C101.221 14.6054 101.295 10.7931 101.543 10.694C101.691 10.6198 105.974 10.5703 110.999 10.595L120.159 10.6445V13.8628ZM6.25862 10.9168C6.6052 11.0654 6.65471 12.8478 6.65471 28.7408V46.4163H3.80783H0.960938V28.7408C0.960938 14.8282 1.0352 11.0406 1.28276 10.9416C1.72836 10.7436 5.78827 10.7436 6.25862 10.9168ZM17.0025 10.9664C17.2501 11.1396 17.2996 14.853 17.2501 28.7408L17.1758 46.2925H14.4527H11.7296L11.6553 28.7408C11.6058 14.853 11.6553 11.1396 11.9029 10.9664C12.0762 10.8673 13.2397 10.7683 14.4527 10.7683C15.6905 10.7683 16.8292 10.8673 17.0025 10.9664ZM58.7156 14.6054C61.3892 20.8686 64.1123 27.2308 64.4342 27.9734C64.6322 28.3695 65.6224 30.6718 66.6374 33.0483C67.6771 35.4248 69.311 39.2124 70.2765 41.4652C71.2419 43.7179 72.0589 45.7231 72.0836 45.9212C72.1331 46.243 71.638 46.2925 68.9397 46.2925C66.3651 46.2925 65.7214 46.2183 65.5481 45.9212C65.4491 45.7231 64.756 43.9407 64.0133 41.9603C63.2706 39.9799 61.6368 35.7467 60.4238 32.5532C59.2107 29.3597 57.973 26.1168 57.7006 25.3741C57.4283 24.6314 57.1313 24.0125 57.0075 24.0125C56.8094 24.0125 56.0173 25.9187 54.1358 30.9441C53.5912 32.4294 52.9971 33.989 52.8238 34.4099C52.6505 34.8059 51.9821 36.5388 51.3385 38.247C50.6948 39.9551 49.7541 42.4554 49.2342 43.817L48.2688 46.2925L45.0506 46.3668C42.8968 46.4163 41.8076 46.342 41.8076 46.1687C41.8076 45.9707 47.3281 32.9245 48.9867 29.2112C49.2342 28.6666 49.7294 27.5031 50.1007 26.6119C50.472 25.7207 51.0166 24.4334 51.3137 23.765C51.6355 23.0718 52.9228 20.0764 54.1854 17.081C56.6114 11.3872 56.8837 10.8673 57.156 11.1892C57.255 11.2882 57.9482 12.823 58.7156 14.6054ZM57.4283 38.1727C58.1958 40.1531 60.1267 45.8222 60.1267 46.0945C60.1267 46.342 59.4088 46.4163 56.9085 46.4163C55.1508 46.4163 53.6903 46.342 53.6903 46.2183C53.6903 46.1192 54.0368 45.1043 54.4577 43.9407C54.8785 42.7772 55.2994 41.6137 55.3489 41.3414C55.4231 41.0691 55.5717 40.7225 55.6707 40.5987C55.745 40.4502 55.9925 39.8561 56.1658 39.2372C56.4876 38.1975 56.8342 37.5043 57.057 37.5043C57.1313 37.5043 57.2798 37.8014 57.4283 38.1727ZM23.9836 42.703C25.3451 44.5349 26.4591 46.144 26.4591 46.243C26.4591 46.342 25.1966 46.3915 23.6865 46.3668L20.8892 46.2925L20.8149 42.9753C20.7406 39.5343 20.8396 38.7173 21.2605 39.1382C21.409 39.2867 22.622 40.8711 23.9836 42.703Z" fill="white"/>
</svg>
