<svg width="155" height="85" viewBox="0 0 155 85" fill="none" xmlns="http://www.w3.org/2000/svg">
<path d="M57.2154 79.3223L50.7754 65.0223H54.2554L59.5554 76.8223H59.8154L65.1154 65.0223H68.5954L62.1554 79.3223H57.2154ZM69.9879 79.3223V65.0223H72.6679L79.2879 69.6623H79.3879L86.0079 65.0223H88.6879V79.3223H85.4879V69.0223L80.9479 72.0623V79.3223H77.7479V72.0623L73.1879 69.0223V79.3223H69.9879ZM91.0318 79.4223V76.8223L102.532 76.8423C103.118 76.8423 103.565 76.7089 103.872 76.4423C104.192 76.1623 104.352 75.7156 104.352 75.1023C104.352 74.4889 104.192 74.0489 103.872 73.7823C103.565 73.5023 103.118 73.3623 102.532 73.3623H95.3718C93.8918 73.3623 92.7385 73.0089 91.9118 72.3023C91.0985 71.5823 90.6918 70.5289 90.6918 69.1423C90.6918 67.7556 91.0985 66.7089 91.9118 66.0023C92.7385 65.2823 93.8918 64.9223 95.3718 64.9223H106.612V67.5223L95.7118 67.5023C95.1385 67.5023 94.6918 67.6356 94.3718 67.9023C94.0518 68.1556 93.8918 68.5689 93.8918 69.1423C93.8918 69.7156 94.0518 70.1356 94.3718 70.4023C94.6918 70.6556 95.1385 70.7823 95.7118 70.7823H102.872C104.352 70.7823 105.498 71.1489 106.312 71.8823C107.138 72.6023 107.552 73.6756 107.552 75.1023C107.552 76.5156 107.138 77.5889 106.312 78.3223C105.498 79.0556 104.352 79.4223 102.872 79.4223H91.0318Z" fill="#081129"/>
<path d="M40.6782 23.1104C43.875 23.1104 46.9111 23.1104 49.828 23.1104C45.6163 27.6692 41.3563 32.2804 36.985 37.0121C40.0949 40.3968 42.856 43.4443 45.6825 46.4184C45.9962 46.7484 46.6827 46.7483 47.197 46.7513C51.4292 46.7761 55.6626 46.7158 59.8931 46.8112C60.6501 46.8282 61.565 47.2495 62.1177 47.8168C64.7146 50.4822 67.2105 53.2637 69.9482 56.2265C69.2392 56.278 68.7935 56.3383 68.3478 56.3386C59.883 56.3442 51.4181 56.3713 42.954 56.2963C42.1547 56.2892 41.1615 55.8504 40.5945 55.2421C35.1135 49.3614 29.7045 43.4015 24.166 37.3451C24.6031 36.8474 25.0937 36.2663 25.606 35.7088C28.7111 32.3295 31.9296 29.063 34.8862 25.537C36.4927 23.6211 38.1945 22.704 40.6782 23.1104Z" fill="#081129"/>
<path d="M102.239 8.60059C111.875 8.60059 121.348 8.60059 131.137 8.60059C130.693 9.19969 130.47 9.56203 130.192 9.8655C127.821 12.4578 125.464 15.067 123.039 17.5993C122.592 18.0656 121.859 18.4593 121.257 18.4615C108.124 18.5101 94.9894 18.5008 81.8554 18.4884C81.4442 18.488 80.8891 18.4948 80.644 18.2314C77.7968 15.1721 74.9965 12.0614 71.8535 8.60059C82.2704 8.60059 92.1734 8.60059 102.239 8.60059Z" fill="#081129"/>
<path d="M80.7668 34.0845C80.7668 37.5432 80.7668 40.8248 80.7668 44.6373C77.0858 40.5973 73.6892 36.9171 70.3686 33.1578C70.0009 32.7414 69.8719 31.8394 69.9629 31.2199C70.5558 27.1817 69.0816 24.3376 66.3584 21.5788C64.1788 19.3707 62.161 18.288 59.1578 18.4234C53.3834 18.6837 47.592 18.4992 41.4609 18.4992C44.5611 15.1409 47.4111 12.0299 50.3013 8.96356C50.5563 8.6931 51.0731 8.61686 51.4689 8.6151C56.5171 8.59264 61.5654 8.58471 66.6133 8.62642C67.0749 8.63023 67.6503 8.87221 67.9763 9.22068C71.9608 13.4808 75.9344 17.7542 79.8353 22.1042C80.3586 22.6878 80.6983 23.702 80.7256 24.5323C80.8285 27.6539 80.7668 30.7819 80.7668 34.0845Z" fill="#081129"/>
<path d="M95.8543 56.2326C95.7422 45.1583 95.7422 34.2035 95.7422 23.1797C99.522 23.1797 103.19 23.1797 106.946 23.1797C106.946 34.1762 106.946 45.1229 106.946 56.3521C103.292 56.3521 99.6291 56.3521 95.8543 56.2326Z" fill="#081129"/>
<path d="M68.264 37.2723C69.3847 37.1394 70.1013 37.4774 70.8265 38.2771C76.229 44.2341 81.6888 50.1298 87.4055 56.3435C85.3693 56.3435 83.6275 56.3573 81.8859 56.3403C79.3466 56.3155 76.5343 56.9952 74.3461 56.0242C72.2123 55.0772 70.7059 52.4447 68.9428 50.5318C64.9575 46.2077 60.9837 41.8711 56.7598 37.2723C60.7146 37.2723 64.4139 37.2723 68.264 37.2723Z" fill="#081129"/>
<path d="M139.186 57.582C138.462 60.7849 137.269 63.5783 135.635 66.1587C136.449 58.2996 137.254 50.5413 138.048 42.875C140.371 47.394 140.4 52.3477 139.186 57.582Z" fill="#081129"/>
<path d="M15.1677 52.4833C15.0441 48.9503 15.4339 45.7139 17.0446 42.5684C17.8079 50.4867 18.551 58.1954 19.3343 66.3203C17.0664 61.8083 15.2159 57.567 15.1677 52.4833Z" fill="#081129"/>
<path d="M10.7781 46.6242C12.046 43.938 13.4716 42.4246 16.2462 41.0352C13.0399 44.8586 11.7044 48.9347 12.076 53.6448C12.4486 58.3688 14.7149 62.1396 17.267 65.7829C11.9127 63.0824 8.28026 53.8614 10.7781 46.6242Z" fill="#081129"/>
<path d="M144.584 55.9555C143.411 60.1767 141.566 63.6987 137.807 65.8222C143.541 58.0371 145.505 50.0047 139.153 41.2236C143.905 43.7041 146.107 48.2058 144.584 55.9555Z" fill="#081129"/>
<path d="M9.96096 23.5546C9.42962 19.8566 10.7428 16.8616 12.5559 14.1308C13.6878 12.4259 15.1509 10.9805 16.7395 9.65039C14.6802 13.2826 12.75 16.8193 12.2359 21.1441C11.7168 25.5107 13.0514 29.2109 15.0142 32.8453C12.1529 30.5436 10.5709 27.4496 9.96096 23.5546Z" fill="#081129"/>
<path d="M139.865 32.9518C145.055 24.7286 143.207 17.1651 138.201 9.71484C138.5 9.87399 138.83 9.98695 139.093 10.1993C142.464 12.9285 144.467 16.647 145.158 21.0648C145.631 24.0862 144.67 26.9483 143.033 29.4186C142.162 30.7342 141.003 31.8251 139.865 32.9518Z" fill="#081129"/>
<path d="M6.43554 14.5899C6.43511 13.6024 6.43511 12.7785 6.43511 11.9316C10.6838 16.943 6.57699 32.3763 0.548828 35.2872C4.50796 28.9398 6.12306 22.058 6.43554 14.5899Z" fill="#081129"/>
<path d="M148.939 18.3288C149.578 24.4926 151.31 30.1417 154.345 35.3053C148.13 31.2795 144.807 18.4222 148.311 12.0898C148.535 14.0847 148.767 16.142 148.939 18.3288Z" fill="#081129"/>
<path d="M150.155 53.2752C149.258 57.6657 148.412 61.9199 147.606 65.9758C144.668 61.1503 148.354 47.2072 153.961 42.6338C152.72 46.1085 151.463 49.6237 150.155 53.2752Z" fill="#081129"/>
<path d="M2.34371 46.0148C1.85088 44.9428 1.431 43.9787 0.898438 42.7559C6.47426 45.9378 10.4976 62.7293 7.12147 66.4857C6.7544 59.2741 5.13787 52.5417 2.34371 46.0148Z" fill="#081129"/>
<path d="M15.865 19.5312C16.6068 16.2198 17.3434 13.0669 18.0801 9.91406C18.3779 9.96586 18.6756 10.0177 18.9734 10.0695C18.3733 17.5115 17.7732 24.9535 17.1361 32.8534C15.6849 28.2806 15.2184 24.0506 15.865 19.5312Z" fill="#081129"/>
<path d="M136.579 10.2632C139.836 17.5532 140.476 24.9077 137.917 32.8218C137.516 27.8504 137.173 23.2229 136.757 18.6032C136.527 16.0618 136.152 13.5362 135.899 10.9968C135.859 10.5964 136.119 10.1606 136.24 9.74121C136.328 9.88101 136.415 10.0208 136.579 10.2632Z" fill="#081129"/>
<path d="M140.712 66.6795C141.929 65.2654 143.063 63.9405 144.291 62.5059C144.776 64.8185 145.024 67.1189 145.779 69.2028C146.294 70.6274 145.914 71.1602 144.846 71.8559C144.307 70.0156 143.795 68.2668 143.242 66.3771C140.543 68.633 137.994 70.764 135.444 72.895C135.291 72.7536 135.139 72.6123 134.986 72.4709C135.28 71.9725 135.487 71.3647 135.882 70.9949C137.432 69.5454 139.042 68.171 140.712 66.6795Z" fill="#081129"/>
<path d="M11.6614 66.9042C11.1534 68.7285 10.6749 70.4052 10.2225 71.9905C9.02774 71.3023 8.93194 70.2775 9.35761 68.8414C9.97255 66.7668 10.3101 64.5951 10.6594 62.9629C13.4518 65.6051 16.4027 68.3772 19.322 71.1881C19.6443 71.4984 19.7856 72.0305 20.0108 72.4597C19.901 72.5692 19.7911 72.6787 19.6812 72.7882C18.6214 72.0085 17.518 71.2893 16.5121 70.4346C15.104 69.238 13.7772 67.929 12.388 66.705C12.2556 66.5883 11.9279 66.7332 11.6614 66.9042Z" fill="#081129"/>
<path d="M141.857 72.7119C141.925 73.2477 141.966 73.7041 141.876 74.1271C141.738 74.7702 141.683 75.7005 141.286 75.9623C140.051 76.7782 138.678 77.3494 137.348 77.9911C136.581 78.3614 136.028 78.2278 135.742 77.2291C135.495 76.3693 135.111 75.6227 136.081 74.9346C137.828 73.6961 139.517 72.3616 141.362 70.9678C141.503 71.5373 141.637 72.0775 141.857 72.7119Z" fill="#081129"/>
<path d="M14.6089 71.6543C16.2517 72.9052 17.858 73.9981 19.2833 75.3212C19.5901 75.6059 19.3921 76.7916 19.1395 77.4277C18.9959 77.7894 18.1604 78.1816 17.8262 78.0381C16.3491 77.4041 14.8473 76.7255 13.5599 75.7447C13.1286 75.4161 13.2107 74.1383 13.236 73.3007C13.2597 72.5122 13.5176 71.732 13.6972 70.8232C14.0296 71.1331 14.2687 71.3558 14.6089 71.6543Z" fill="#081129"/>
<path d="M142.633 5.97224C142.491 6.40988 142.365 6.71744 142.236 7.03155C140.312 5.29267 138.437 3.59809 136.502 1.84854C136.741 0.0809546 137.177 -0.287301 138.76 0.192677C139.43 0.395565 140.105 0.648696 140.712 1.00907C143.246 2.51341 143.375 2.87648 142.633 5.97224Z" fill="#081129"/>
<path d="M9.37882 9.72739C8.29733 6.82446 8.29733 6.82446 10.1699 5.4577C10.544 7.20204 10.9119 8.91784 11.2409 10.452C13.7072 8.01444 16.1698 5.58056 18.7818 2.99902C19.2167 4.11511 19.5022 4.54238 18.4211 5.26048C16.808 6.33185 15.503 7.95527 14.0818 9.36153C12.9413 10.49 11.823 11.6447 10.5275 12.9574C10.143 11.9034 9.77081 10.8833 9.37882 9.72739Z" fill="#081129"/>
<path d="M13.2973 6.82637C13.0813 6.89178 12.9231 7.01985 12.9018 6.99697C11.8782 5.90195 11.7472 3.00741 12.8579 2.1819C14.026 1.31381 15.3698 0.675173 16.7055 0.137645C17.93 -0.35517 18.4466 0.568586 18.6404 1.57148C16.8617 3.35886 15.1403 5.08873 13.2973 6.82637Z" fill="#081129"/>
<path d="M144.45 7.62373C144.621 6.78536 144.746 6.08763 144.87 5.40339C146.776 6.34354 146.739 7.64651 145.88 9.29808C145.303 10.4069 144.957 11.6573 144.54 12.7578C141.631 9.88527 138.71 7.00181 135.746 4.07504C136.082 3.43579 136.379 3.31895 137.138 4.03388C139.377 6.14466 141.57 8.31454 143.824 10.5028C143.99 9.72072 144.197 8.74255 144.45 7.62373Z" fill="#081129"/>
<path d="M0.852292 50.4423C0.567062 48.4451 0.283531 46.599 0 44.7529C0.160584 44.7109 0.321169 44.6689 0.481754 44.627C2.31545 51.2089 4.14915 57.7908 5.98285 64.3727C3.37057 60.1434 1.87062 55.4693 0.852292 50.4423Z" fill="#081129"/>
<path d="M153.645 53.0919C152.538 56.9096 151.479 60.5923 149.638 63.9076C149.504 63.8531 149.371 63.7986 149.238 63.7441C150.983 57.486 152.727 51.2278 154.472 44.9697C154.648 45.0035 154.824 45.0373 155 45.0711C154.563 47.6992 154.127 50.3274 153.645 53.0919Z" fill="#081129"/>
<path d="M151.405 17.1487C153.271 22.0583 154.445 26.9965 154.797 32.1332C154.663 32.1675 154.53 32.2019 154.396 32.2363C152.904 26.5144 151.412 20.7924 149.92 15.0705C150.066 15.0037 150.212 14.9369 150.358 14.8701C150.694 15.5868 151.031 16.3034 151.405 17.1487Z" fill="#081129"/>
<path d="M1.55837 28.7772C1.28791 29.7206 1.03605 30.5214 0.784182 31.3221C0.60547 31.2799 0.426759 31.2377 0.248047 31.1955C0.561282 29.4057 0.838692 27.6073 1.19755 25.8283C1.57709 23.9469 1.93479 22.0485 2.48564 20.2229C3.02442 18.4373 3.79466 16.7341 4.45642 15.0127C4.8523 15.6176 4.85942 15.6195 3.98371 19.4142C3.626 20.9643 3.24815 22.5095 2.84628 24.0467C2.44476 25.5826 2.00177 27.1057 1.55837 28.7772Z" fill="#081129"/>
<path d="M148.046 37.6835C147.813 39.2756 146.976 39.5351 145.816 39.1389C144.353 38.639 142.893 38.1309 140.998 37.4766C143.107 36.9128 144.828 36.3308 146.59 36.071C147.008 36.0094 147.56 37.0285 148.046 37.6835Z" fill="#081129"/>
<path d="M8.89569 39.0916C8.13273 38.9124 7.49227 38.7075 6.86133 38.5055C7.45487 35.9781 7.59004 35.8858 9.72532 36.3922C11.0045 36.6955 12.2819 37.0082 13.58 37.614C12.0594 38.0979 10.5388 38.5819 8.89569 39.0916Z" fill="#081129"/>
<path d="M148.714 34.5154C148.256 34.8613 147.713 35.0917 147.107 35.3488C147.107 33.0098 147.107 30.942 147.107 28.8742C147.208 28.8627 147.309 28.8513 147.41 28.8398C147.817 30.6932 148.223 32.5466 148.714 34.5154Z" fill="#081129"/>
<path d="M2.97561 39.0046C2.55295 38.8555 2.25501 38.7308 1.83008 38.5528C3.10583 37.8587 4.2717 37.2245 5.6123 36.4951C5.56591 37.6267 5.52742 38.5655 5.4811 39.6953C4.62566 39.4558 3.863 39.2423 2.97561 39.0046Z" fill="#081129"/>
<path d="M7.09282 31.5616C7.2556 30.6936 7.40973 29.9738 7.56386 29.2539C7.61952 29.2653 7.67519 29.2767 7.73085 29.288C7.86158 31.1935 7.99231 33.099 8.12878 35.0883C7.51527 35.0883 7.05647 35.0883 6.41211 35.0883C6.64273 33.9289 6.86344 32.8194 7.09282 31.5616Z" fill="#081129"/>
<path d="M149.55 36.7822C150.759 37.2648 151.901 37.8558 153.356 38.6086C151.911 39.0219 150.78 39.3456 149.482 39.7168C149.482 38.733 149.482 37.8118 149.55 36.7822Z" fill="#081129"/>
<path d="M7.53828 44.2408C7.47731 44.9097 7.41849 45.429 7.36784 45.8763C7.1248 44.1416 6.87002 42.3231 6.61523 40.5046C6.90208 40.4731 7.18892 40.4416 7.47576 40.4102C7.49732 41.6372 7.51887 42.8643 7.53828 44.2408Z" fill="#081129"/>
<path d="M147.478 41.5047C147.552 41.0435 147.624 40.7429 147.696 40.4424C147.886 40.4618 148.075 40.4811 148.265 40.5005C148.133 42.2341 148.002 43.9678 147.87 45.7014C147.739 45.7025 147.608 45.7036 147.477 45.7047C147.477 44.3583 147.477 43.0119 147.478 41.5047Z" fill="#081129"/>
</svg>
