<svg width="180" height="70" viewBox="0 0 180 70" fill="none" xmlns="http://www.w3.org/2000/svg">
<path d="M175.495 5.49114L175.383 11.0197L168.771 11.1318C164.924 11.1691 162.122 11.0944 162.122 10.8703C162.122 10.5715 164.027 8.89048 171.61 2.54007C173.291 1.15793 174.86 -9.15527e-05 175.122 -9.15527e-05C175.495 -9.15527e-05 175.57 1.23264 175.495 5.49114ZM38.4386 15.2782C38.8122 15.5024 38.476 16.1 36.9818 17.781C32.91 22.3384 30.5566 24.6544 30.2204 24.4303C29.6975 24.1314 29.8095 15.9133 30.3325 15.3903C30.8555 14.8673 37.6168 14.7553 38.4386 15.2782ZM55.2111 15.2409C55.7341 15.5771 55.2485 16.3242 48.5619 24.8785C47.0303 26.8584 45.3493 29.025 44.8264 29.6974C44.3034 30.3698 42.3983 32.8726 40.5679 35.2633L37.2432 39.6339L38.3265 41.2028C38.9616 42.062 40.6052 44.4527 42.0247 46.5073C43.4069 48.5618 44.8264 50.5416 45.1252 50.9152C45.4241 51.2514 45.8723 51.8864 46.0965 52.26C46.3206 52.6709 48.9728 56.4811 51.9612 60.777C54.987 65.0355 57.3778 68.659 57.2657 68.8084C57.191 68.9952 54.8002 69.1072 51.9612 69.1072H46.8436L43.7057 64.3631C41.95 61.7856 40.269 59.2081 39.9702 58.6851C39.634 58.1621 36.795 53.8663 33.6571 49.1221C30.4819 44.4154 27.8297 40.2316 27.7176 39.8954C27.6429 39.5218 28.0165 38.7 28.6142 37.9903C29.2119 37.2805 31.3785 34.4042 33.433 31.6025C35.4875 28.7635 38.0277 25.3642 39.0363 23.982C40.0822 22.5999 41.7259 20.3959 42.6598 19.0511C45.7603 14.7179 45.3493 14.942 50.355 14.942C52.7457 14.942 54.9497 15.0915 55.2111 15.2409ZM143.332 15.5024C143.519 16.0253 140.942 22.7867 138.364 28.5767C137.916 29.5853 135.6 35.226 133.172 41.0908C130.781 46.9555 128.39 52.6335 127.905 53.7168C127.419 54.8002 127.008 55.8087 127.008 55.9955C127.008 56.1823 126.747 56.8173 126.448 57.3777C125.402 59.3949 125.252 59.3575 134.218 59.4696L142.51 59.5816L142.623 64.3258L142.735 69.1072H127.755C118.342 69.1072 112.813 68.9578 112.813 68.7337C112.813 68.3601 127.68 31.1169 128.876 28.5394C129.287 27.6802 129.698 26.5595 129.847 25.9992L130.071 25.028L121.741 24.9533L113.373 24.8412L113.261 20.3959C113.224 17.9305 113.261 15.6891 113.336 15.4277C113.485 15.0541 116.474 14.942 128.315 14.942C141.278 14.942 143.108 15.0167 143.332 15.5024ZM179.866 19.985V24.8412L169.967 25.028L160.068 25.2147L159.955 30.4445C159.918 33.3208 159.918 36.0104 160.03 36.4213C160.217 37.1311 160.516 37.1684 169.294 37.1684H178.372V42.0246V46.8808L169.22 47.0676L160.068 47.2544L159.955 53.3059L159.881 59.3949L169.855 59.4696L179.866 59.5816L179.978 64.1016C180.053 67.4262 179.941 68.6963 179.604 68.9578C179.305 69.1819 173.478 69.2567 165.223 69.1819L151.289 69.0325V42.2114C151.289 21.1057 151.401 15.3529 151.775 15.2035C151.999 15.0915 158.461 15.0167 166.044 15.0541L179.866 15.1288V19.985ZM7.99404 15.5397C8.51701 15.7639 8.59172 18.4534 8.59172 42.4355V69.1072H4.29586H0V42.4355C0 21.4419 0.112065 15.7265 0.485619 15.5771C1.15801 15.2782 7.28429 15.2782 7.99404 15.5397ZM24.2062 15.6144C24.5798 15.8759 24.6545 21.4792 24.5798 42.4355L24.4677 68.9205H20.3586H16.2496L16.1375 42.4355C16.0628 21.4792 16.1375 15.8759 16.511 15.6144C16.7725 15.465 18.5282 15.3156 20.3586 15.3156C22.2264 15.3156 23.9448 15.465 24.2062 15.6144ZM87.1499 21.1057C91.1843 30.5566 95.2934 40.1569 95.779 41.2775C96.0779 41.8752 97.5721 45.3493 99.1036 48.9354C100.673 52.5215 103.138 58.2368 104.595 61.6362C106.052 65.0355 107.284 68.0613 107.322 68.3601C107.397 68.8457 106.649 68.9205 102.578 68.9205C98.6927 68.9205 97.7215 68.8084 97.46 68.3601C97.3106 68.0613 96.2646 65.3717 95.144 62.3833C94.0233 59.3949 91.5579 53.0071 89.7275 48.1883C87.897 43.3694 86.0293 38.4759 85.6184 37.3552C85.2075 36.2346 84.7592 35.3007 84.5724 35.3007C84.2736 35.3007 83.0782 38.177 80.2392 45.7602C79.4174 48.0015 78.5209 50.3549 78.2594 50.9899C77.9979 51.5876 76.9893 54.2025 76.0181 56.78C75.0468 59.3575 73.6273 63.1304 72.8428 65.1849L71.386 68.9205L66.5298 69.0325C63.2799 69.1072 61.6363 68.9952 61.6363 68.7337C61.6363 68.4348 69.9665 48.7486 72.4693 43.1453C72.8429 42.3235 73.59 40.5678 74.1503 39.223C74.7106 37.8782 75.5324 35.9357 75.9807 34.9271C76.4663 33.8812 78.4088 29.3612 80.3139 24.8412C83.9747 16.2495 84.3856 15.465 84.7966 15.9506C84.946 16.1001 85.9919 18.4161 87.1499 21.1057ZM85.2075 56.6679C86.3655 59.6563 89.2792 68.2107 89.2792 68.6216C89.2792 68.9952 88.1959 69.1072 84.423 69.1072C81.7708 69.1072 79.5668 68.9952 79.5668 68.8084C79.5668 68.659 80.0898 67.1274 80.7248 65.3717C81.3599 63.616 81.9949 61.8603 82.0696 61.4494C82.1817 61.0385 82.4058 60.5155 82.5552 60.3287C82.6673 60.1046 83.0409 59.2081 83.3023 58.2742C83.788 56.7053 84.3109 55.6593 84.6471 55.6593C84.7592 55.6593 84.9833 56.1076 85.2075 56.6679ZM34.7404 63.5039C36.795 66.2682 38.476 68.6963 38.476 68.8457C38.476 68.9952 36.5709 69.0699 34.2922 69.0325L30.071 68.9205L29.959 63.9148C29.8469 58.7225 29.9963 57.4897 30.6314 58.1248C30.8555 58.3489 32.6859 60.7396 34.7404 63.5039Z" fill="#1958F7"/>
</svg>
