<svg width="500" height="500" viewBox="0 0 500 500" fill="none" xmlns="http://www.w3.org/2000/svg">
<rect width="500" height="500" rx="250" fill="white"/>
<path d="M198.19 334.846L183.178 301.511H191.29L203.645 329.018H204.251L216.606 301.511H224.719L209.706 334.846H198.19ZM227.965 334.846V301.511H234.212L249.644 312.327H249.877L265.31 301.511H271.557V334.846H264.097V310.835L253.514 317.922V334.846H246.054V317.922L235.424 310.835V334.846H227.965ZM277.021 335.079V329.018L303.829 329.065C305.197 329.065 306.238 328.754 306.953 328.132C307.699 327.48 308.072 326.438 308.072 325.009C308.072 323.579 307.699 322.553 306.953 321.931C306.238 321.279 305.197 320.952 303.829 320.952H287.138C283.688 320.952 280.999 320.129 279.072 318.481C277.176 316.803 276.228 314.347 276.228 311.115C276.228 307.882 277.176 305.443 279.072 303.795C280.999 302.117 283.688 301.278 287.138 301.278H313.34V307.339L287.931 307.292C286.594 307.292 285.553 307.603 284.807 308.224C284.061 308.815 283.688 309.778 283.688 311.115C283.688 312.451 284.061 313.431 284.807 314.052C285.553 314.643 286.594 314.938 287.931 314.938H304.622C308.072 314.938 310.745 315.793 312.641 317.502C314.568 319.181 315.531 321.683 315.531 325.009C315.531 328.303 314.568 330.805 312.641 332.515C310.745 334.224 308.072 335.079 304.622 335.079H277.021Z" fill="#001526"/>
<path d="M157.829 205.248C165.831 205.248 173.431 205.248 180.733 205.248C170.19 215.752 159.526 226.377 148.584 237.279C156.369 245.077 163.28 252.099 170.356 258.952C171.141 259.712 172.859 259.712 174.147 259.719C184.741 259.776 195.338 259.637 205.928 259.857C207.823 259.896 210.113 260.866 211.497 262.174C217.997 268.315 224.245 274.724 231.098 281.55C229.324 281.669 228.208 281.808 227.092 281.808C205.903 281.821 184.713 281.884 163.526 281.711C161.525 281.695 159.039 280.684 157.62 279.282C143.899 265.732 130.359 252 116.495 238.046C117.589 236.899 118.817 235.561 120.1 234.276C127.873 226.49 135.929 218.964 143.33 210.839C147.352 206.425 151.612 204.312 157.829 205.248Z" fill="#001526"/>
<path d="M311.928 171.816C336.049 171.816 359.762 171.816 384.266 171.816C383.154 173.197 382.596 174.032 381.901 174.731C375.965 180.704 370.064 186.715 363.994 192.55C362.876 193.624 361.042 194.531 359.535 194.537C326.658 194.649 293.78 194.627 260.903 194.598C259.873 194.598 258.484 194.613 257.87 194.006C250.743 186.957 243.733 179.79 235.866 171.816C261.941 171.816 286.731 171.816 311.928 171.816Z" fill="#001526"/>
<path d="M258.176 230.532C258.176 238.501 258.176 246.062 258.176 254.847C248.961 245.538 240.459 237.059 232.147 228.397C231.226 227.438 230.903 225.359 231.131 223.932C232.615 214.628 228.925 208.075 222.108 201.718C216.652 196.631 211.601 194.136 204.084 194.448C189.629 195.048 175.132 194.623 159.784 194.623C167.545 186.885 174.679 179.717 181.914 172.652C182.552 172.029 183.846 171.853 184.837 171.849C197.473 171.797 210.11 171.779 222.746 171.875C223.902 171.884 225.342 172.441 226.158 173.244C236.132 183.06 246.079 192.906 255.844 202.929C257.154 204.273 258.004 206.61 258.073 208.523C258.33 215.716 258.176 222.923 258.176 230.532Z" fill="#001526"/>
<path d="M295.943 281.564C295.662 256.048 295.662 230.807 295.662 205.408C305.124 205.408 314.305 205.408 323.707 205.408C323.707 230.744 323.707 255.966 323.707 281.839C314.561 281.839 305.392 281.839 295.943 281.564Z" fill="#001526"/>
<path d="M226.88 237.875C229.686 237.569 231.48 238.348 233.295 240.19C246.818 253.916 260.486 267.5 274.796 281.817C269.699 281.817 265.338 281.848 260.979 281.809C254.623 281.752 247.583 283.318 242.105 281.081C236.764 278.899 232.993 272.833 228.58 268.426C218.603 258.463 208.656 248.471 198.083 237.875C207.983 237.875 217.243 237.875 226.88 237.875Z" fill="#001526"/>
<path d="M404.416 284.674C402.604 292.054 399.618 298.49 395.526 304.435C397.566 286.328 399.579 268.452 401.568 250.788C407.383 261.2 407.454 272.614 404.416 284.674Z" fill="#001526"/>
<path d="M93.9733 272.924C93.6639 264.784 94.6395 257.327 98.6715 250.079C100.582 268.324 102.442 286.085 104.403 304.805C98.7262 294.409 94.0939 284.637 93.9733 272.924Z" fill="#001526"/>
<path d="M82.9753 259.425C86.1492 253.236 89.718 249.749 96.6632 246.548C88.6371 255.357 85.2942 264.749 86.2242 275.601C87.1571 286.486 92.8301 295.174 99.2186 303.568C85.8157 297.346 76.7228 276.1 82.9753 259.425Z" fill="#001526"/>
<path d="M417.923 280.926C414.988 290.652 410.371 298.766 400.959 303.659C415.313 285.722 420.23 267.214 404.329 246.982C416.225 252.697 421.737 263.07 417.923 280.926Z" fill="#001526"/>
<path d="M80.9318 206.27C79.6018 197.75 82.889 190.849 87.4275 184.557C90.261 180.629 93.9235 177.299 97.9001 174.234C92.7453 182.603 87.9135 190.751 86.6265 200.716C85.3271 210.777 88.6678 219.303 93.5811 227.677C86.4187 222.373 82.4588 215.245 80.9318 206.27Z" fill="#001526"/>
<path d="M406.109 227.923C419.102 208.976 414.475 191.549 401.945 174.383C402.693 174.75 403.52 175.01 404.176 175.5C412.616 181.788 417.63 190.356 419.36 200.534C420.543 207.496 418.137 214.091 414.041 219.782C411.86 222.813 408.959 225.327 406.109 227.923Z" fill="#001526"/>
<path d="M72.1092 185.617C72.1081 183.342 72.1081 181.443 72.1081 179.492C82.7436 191.039 72.4632 226.598 57.3734 233.305C67.284 218.68 71.327 202.824 72.1092 185.617Z" fill="#001526"/>
<path d="M428.827 194.231C430.426 208.433 434.761 221.449 442.359 233.346C426.801 224.07 418.482 194.446 427.255 179.856C427.817 184.452 428.396 189.192 428.827 194.231Z" fill="#001526"/>
<path d="M431.873 274.75C429.626 284.866 427.51 294.668 425.493 304.013C418.137 292.895 427.365 260.769 441.401 250.232C438.293 258.238 435.148 266.337 431.873 274.75Z" fill="#001526"/>
<path d="M61.8671 258.022C60.6334 255.552 59.5824 253.33 58.2493 250.513C72.2068 257.844 82.2781 296.533 73.8269 305.188C72.908 288.572 68.8615 273.06 61.8671 258.022Z" fill="#001526"/>
<path d="M95.7143 197.002C97.5711 189.372 99.415 182.108 101.259 174.843C102.004 174.963 102.75 175.082 103.495 175.201C101.993 192.348 100.491 209.495 98.8961 227.697C95.2635 217.161 94.0956 207.415 95.7143 197.002Z" fill="#001526"/>
<path d="M397.884 175.649C406.037 192.446 407.639 209.391 401.234 227.626C400.229 216.171 399.371 205.509 398.329 194.865C397.755 189.009 396.815 183.19 396.181 177.339C396.081 176.417 396.732 175.413 397.036 174.446C397.255 174.768 397.474 175.09 397.884 175.649Z" fill="#001526"/>
<path d="M408.235 305.634C411.281 302.376 414.12 299.324 417.194 296.018C418.409 301.346 419.03 306.647 420.918 311.448C422.209 314.731 421.256 315.958 418.583 317.561C417.235 313.321 415.954 309.292 414.569 304.938C407.813 310.135 401.43 315.045 395.048 319.955C394.666 319.63 394.285 319.304 393.903 318.978C394.638 317.83 395.155 316.429 396.145 315.577C400.026 312.238 404.055 309.071 408.235 305.634Z" fill="#001526"/>
<path d="M85.1927 306.152C83.9212 310.355 82.7234 314.218 81.591 317.871C78.6002 316.285 78.3604 313.924 79.4259 310.615C80.9652 305.835 81.8102 300.832 82.6846 297.071C89.6746 303.159 97.0614 309.546 104.369 316.022C105.176 316.737 105.529 317.963 106.093 318.952C105.818 319.204 105.543 319.457 105.268 319.709C102.615 317.913 99.8531 316.255 97.3352 314.286C93.8104 311.529 90.4891 308.513 87.0118 305.693C86.6802 305.424 85.8599 305.758 85.1927 306.152Z" fill="#001526"/>
<path d="M411.101 319.533C411.271 320.767 411.375 321.819 411.149 322.793C410.804 324.275 410.665 326.419 409.673 327.022C406.582 328.902 403.144 330.218 399.815 331.696C397.894 332.549 396.511 332.242 395.794 329.941C395.177 327.96 394.215 326.239 396.644 324.654C401.017 321.8 405.244 318.726 409.862 315.514C410.216 316.826 410.551 318.071 411.101 319.533Z" fill="#001526"/>
<path d="M92.573 317.095C96.6852 319.977 100.706 322.495 104.274 325.543C105.042 326.2 104.546 328.931 103.914 330.397C103.555 331.231 101.463 332.134 100.627 331.804C96.929 330.343 93.1697 328.779 89.9472 326.519C88.8675 325.762 89.0731 322.818 89.1362 320.888C89.1956 319.071 89.8413 317.274 90.2908 315.18C91.1229 315.894 91.7213 316.407 92.573 317.095Z" fill="#001526"/>
<path d="M413.043 165.76C412.689 166.769 412.373 167.477 412.049 168.201C407.234 164.195 402.541 160.29 397.697 156.259C398.295 152.187 399.386 151.338 403.35 152.444C405.026 152.911 406.716 153.495 408.235 154.325C414.579 157.791 414.9 158.628 413.043 165.76Z" fill="#001526"/>
<path d="M79.4777 174.412C76.7705 167.724 76.7705 167.724 81.4581 164.575C82.3944 168.594 83.3154 172.547 84.1389 176.082C90.3127 170.466 96.4771 164.858 103.015 158.91C104.104 161.481 104.819 162.466 102.112 164.12C98.0746 166.589 94.8079 170.329 91.2503 173.569C88.3955 176.169 85.596 178.83 82.3531 181.854C81.3906 179.426 80.459 177.076 79.4777 174.412Z" fill="#001526"/>
<path d="M89.2888 167.729C88.7482 167.88 88.3522 168.175 88.2987 168.122C85.7364 165.599 85.4085 158.93 88.189 157.028C91.1128 155.028 94.4767 153.556 97.8202 152.318C100.886 151.182 102.179 153.311 102.664 155.621C98.2114 159.74 93.9023 163.725 89.2888 167.729Z" fill="#001526"/>
<path d="M417.591 169.566C418.018 167.634 418.333 166.027 418.642 164.45C423.413 166.616 423.321 169.618 421.17 173.424C419.726 175.978 418.859 178.86 417.817 181.395C410.534 174.777 403.224 168.133 395.804 161.39C396.643 159.917 397.388 159.647 399.287 161.295C404.893 166.158 410.382 171.158 416.023 176.199C416.439 174.398 416.959 172.144 417.591 169.566Z" fill="#001526"/>
<path d="M58.1335 268.224C57.4195 263.622 56.7097 259.369 56 255.115C56.402 255.018 56.804 254.922 57.2059 254.825C61.7961 269.99 66.3863 285.155 70.9764 300.321C64.4373 290.576 60.6826 279.806 58.1335 268.224Z" fill="#001526"/>
<path d="M440.61 274.327C437.838 283.124 435.187 291.609 430.577 299.248C430.244 299.122 429.911 298.996 429.578 298.871C433.945 284.452 438.311 270.033 442.678 255.614C443.119 255.691 443.559 255.769 444 255.847C442.908 261.902 441.816 267.958 440.61 274.327Z" fill="#001526"/>
<path d="M434.999 191.512C439.668 202.824 442.608 214.202 443.488 226.038C443.154 226.117 442.819 226.196 442.485 226.275C438.75 213.091 435.015 199.908 431.281 186.724C431.646 186.57 432.012 186.416 432.377 186.262C433.219 187.914 434.061 189.565 434.999 191.512Z" fill="#001526"/>
<path d="M59.9012 218.305C59.2242 220.479 58.5938 222.324 57.9633 224.169C57.5159 224.072 57.0686 223.975 56.6212 223.877C57.4053 219.753 58.0997 215.61 58.998 211.511C59.9481 207.176 60.8435 202.802 62.2224 198.596C63.5711 194.482 65.4992 190.557 67.1557 186.591C68.1467 187.985 68.1645 187.989 65.9724 196.732C65.077 200.304 64.1311 203.864 63.1252 207.406C62.1201 210.945 61.0112 214.454 59.9012 218.305Z" fill="#001526"/>
<path d="M426.595 238.825C426.01 242.493 423.915 243.091 421.012 242.178C417.351 241.027 413.695 239.856 408.951 238.348C414.231 237.049 418.54 235.708 422.949 235.11C423.994 234.968 425.378 237.316 426.595 238.825Z" fill="#001526"/>
<path d="M78.2678 242.07C76.3579 241.657 74.7547 241.185 73.1753 240.72C74.6611 234.896 74.9994 234.684 80.3445 235.851C83.5467 236.55 86.7442 237.27 89.9936 238.666C86.1872 239.781 82.3808 240.896 78.2678 242.07Z" fill="#001526"/>
<path d="M428.264 231.527C427.117 232.324 425.758 232.855 424.242 233.447C424.242 228.058 424.242 223.293 424.242 218.529C424.495 218.503 424.747 218.476 425 218.45C426.017 222.72 427.034 226.99 428.264 231.527Z" fill="#001526"/>
<path d="M63.4449 241.871C62.3869 241.528 61.6411 241.24 60.5774 240.83C63.7709 239.231 66.6893 237.77 70.0451 236.089C69.929 238.697 69.8327 240.86 69.7167 243.463C67.5754 242.911 65.6663 242.419 63.4449 241.871Z" fill="#001526"/>
<path d="M73.7562 224.719C74.1637 222.719 74.5495 221.061 74.9353 219.402C75.0747 219.428 75.214 219.454 75.3534 219.481C75.6806 223.871 76.0078 228.261 76.3495 232.845C74.8137 232.845 73.6652 232.845 72.0522 232.845C72.6295 230.174 73.182 227.617 73.7562 224.719Z" fill="#001526"/>
<path d="M430.359 236.748C433.387 237.86 436.246 239.221 439.888 240.956C436.271 241.908 433.439 242.654 430.191 243.509C430.191 241.242 430.191 239.12 430.359 236.748Z" fill="#001526"/>
<path d="M74.8736 253.934C74.721 255.475 74.5737 256.671 74.4469 257.702C73.8385 253.705 73.2008 249.515 72.563 245.325C73.281 245.253 73.9991 245.18 74.7171 245.108C74.771 247.935 74.825 250.762 74.8736 253.934Z" fill="#001526"/>
<path d="M425.171 247.628C425.355 246.565 425.537 245.873 425.718 245.18C426.192 245.225 426.666 245.269 427.14 245.314C426.811 249.308 426.482 253.303 426.153 257.297C425.824 257.3 425.496 257.302 425.167 257.305C425.167 254.203 425.167 251.101 425.171 247.628Z" fill="#001526"/>
</svg>
