<svg width="59" height="58" viewBox="0 0 59 58" fill="none" xmlns="http://www.w3.org/2000/svg">
<rect x="7.5" y="7" width="44" height="44" rx="22" fill="#2ACD7B"/>
<rect x="4" y="3.5" width="51" height="51" rx="25.5" stroke="#2ACD7B" stroke-opacity="0.2" stroke-width="7"/>
<path d="M20.166 19.8122C20.166 19.1547 20.4272 18.5241 20.8921 18.0591C21.3571 17.5942 21.9877 17.333 22.6452 17.333H31.6868C32.3444 17.333 32.9749 17.5942 33.4399 18.0591C33.9048 18.5241 34.166 19.1547 34.166 19.8122V26.083H36.3535C37.011 26.083 37.6416 26.3442 38.1066 26.8091C38.5715 27.2741 38.8327 27.9047 38.8327 28.5622V39.9372C38.8327 40.3397 38.506 40.6663 38.1035 40.6663H35.3327V36.7288C35.3327 36.3807 35.1944 36.0469 34.9483 35.8008C34.7021 35.5546 34.3683 35.4163 34.0202 35.4163H24.9785C24.6304 35.4163 24.2966 35.5546 24.0504 35.8008C23.8043 36.0469 23.666 36.3807 23.666 36.7288V40.6663H20.8952C20.4927 40.6663 20.166 40.3397 20.166 39.9372V19.8122ZM25.1243 40.6663H28.7702V36.8747H25.1243V40.6663ZM30.2285 40.6663H33.8743V36.8747H30.2285V40.6663ZM25.9993 23.1663C25.9993 22.8569 25.8764 22.5602 25.6576 22.3414C25.4388 22.1226 25.1421 21.9997 24.8327 21.9997C24.5233 21.9997 24.2265 22.1226 24.0077 22.3414C23.7889 22.5602 23.666 22.8569 23.666 23.1663C23.666 23.4758 23.7889 23.7725 24.0077 23.9913C24.2265 24.2101 24.5233 24.333 24.8327 24.333C25.1421 24.333 25.4388 24.2101 25.6576 23.9913C25.8764 23.7725 25.9993 23.4758 25.9993 23.1663ZM24.8327 28.4163C25.1421 28.4163 25.4388 28.2934 25.6576 28.0746C25.8764 27.8558 25.9993 27.5591 25.9993 27.2497C25.9993 26.9403 25.8764 26.6435 25.6576 26.4247C25.4388 26.2059 25.1421 26.083 24.8327 26.083C24.5233 26.083 24.2265 26.2059 24.0077 26.4247C23.7889 26.6435 23.666 26.9403 23.666 27.2497C23.666 27.5591 23.7889 27.8558 24.0077 28.0746C24.2265 28.2934 24.5233 28.4163 24.8327 28.4163ZM25.9993 31.333C25.9993 31.0236 25.8764 30.7268 25.6576 30.508C25.4388 30.2893 25.1421 30.1663 24.8327 30.1663C24.5233 30.1663 24.2265 30.2893 24.0077 30.508C23.7889 30.7268 23.666 31.0236 23.666 31.333C23.666 31.6424 23.7889 31.9392 24.0077 32.158C24.2265 32.3768 24.5233 32.4997 24.8327 32.4997C25.1421 32.4997 25.4388 32.3768 25.6576 32.158C25.8764 31.9392 25.9993 31.6424 25.9993 31.333ZM29.4993 24.333C29.8088 24.333 30.1055 24.2101 30.3243 23.9913C30.5431 23.7725 30.666 23.4758 30.666 23.1663C30.666 22.8569 30.5431 22.5602 30.3243 22.3414C30.1055 22.1226 29.8088 21.9997 29.4993 21.9997C29.1899 21.9997 28.8932 22.1226 28.6744 22.3414C28.4556 22.5602 28.3327 22.8569 28.3327 23.1663C28.3327 23.4758 28.4556 23.7725 28.6744 23.9913C28.8932 24.2101 29.1899 24.333 29.4993 24.333ZM30.666 27.2497C30.666 26.9403 30.5431 26.6435 30.3243 26.4247C30.1055 26.2059 29.8088 26.083 29.4993 26.083C29.1899 26.083 28.8932 26.2059 28.6744 26.4247C28.4556 26.6435 28.3327 26.9403 28.3327 27.2497C28.3327 27.5591 28.4556 27.8558 28.6744 28.0746C28.8932 28.2934 29.1899 28.4163 29.4993 28.4163C29.8088 28.4163 30.1055 28.2934 30.3243 28.0746C30.5431 27.8558 30.666 27.5591 30.666 27.2497ZM29.4993 32.4997C29.8088 32.4997 30.1055 32.3768 30.3243 32.158C30.5431 31.9392 30.666 31.6424 30.666 31.333C30.666 31.0236 30.5431 30.7268 30.3243 30.508C30.1055 30.2893 29.8088 30.1663 29.4993 30.1663C29.1899 30.1663 28.8932 30.2893 28.6744 30.508C28.4556 30.7268 28.3327 31.0236 28.3327 31.333C28.3327 31.6424 28.4556 31.9392 28.6744 32.158C28.8932 32.3768 29.1899 32.4997 29.4993 32.4997ZM35.3327 31.333C35.3327 31.0236 35.2098 30.7268 34.991 30.508C34.7722 30.2893 34.4754 30.1663 34.166 30.1663C33.8566 30.1663 33.5598 30.2893 33.3411 30.508C33.1223 30.7268 32.9993 31.0236 32.9993 31.333C32.9993 31.6424 33.1223 31.9392 33.3411 32.158C33.5598 32.3768 33.8566 32.4997 34.166 32.4997C34.4754 32.4997 34.7722 32.3768 34.991 32.158C35.2098 31.9392 35.3327 31.6424 35.3327 31.333Z" fill="white"/>
</svg>
